<svg xmlns="http://www.w3.org/2000/svg" width="720" height="540" viewBox="0 0 720 540" fill="none">
  <rect width="720" height="540" rx="32" fill="#EEF4F8"/>
  <rect x="48" y="48" width="624" height="444" rx="28" fill="#FFFFFF" stroke="#D7E1E8"/>
  <text x="88" y="112" fill="#5A6B7D" font-family="Arial, sans-serif" font-size="12" font-weight="700" letter-spacing="1.4">REFERENCE</text>
  <text x="88" y="148" fill="#152637" font-family="Arial, sans-serif" font-size="28" font-weight="700">Applicant information</text>
  <rect x="88" y="184" width="544" height="122" rx="22" fill="#F7FAFC" stroke="#E1E8EE"/>
  <circle cx="128" cy="228" r="20" fill="#D9EDF5"/>
  <circle cx="128" cy="220" r="7" fill="#0F5C7A"/>
  <path d="M117 242c5-8 17-8 22 0" stroke="#0F5C7A" stroke-width="4" stroke-linecap="round"/>
  <text x="162" y="221" fill="#152637" font-family="Arial, sans-serif" font-size="22" font-weight="700">Alex Lindberg</text>
  <text x="162" y="248" fill="#5A6B7D" font-family="Arial, sans-serif" font-size="16">Primary applicant</text>
  <text x="162" y="279" fill="#5A6B7D" font-family="Arial, sans-serif" font-size="14">Personal number</text>
  <text x="162" y="299" fill="#152637" font-family="Arial, sans-serif" font-size="18" font-weight="700">12069012345</text>
  <rect x="546" y="268" width="42" height="42" rx="12" fill="#D9EDF5"/>
  <rect x="557" y="279" width="14" height="14" rx="3" stroke="#0F5C7A" stroke-width="2"/>
  <rect x="563" y="285" width="14" height="14" rx="3" stroke="#0F5C7A" stroke-width="2"/>
  <text x="576" y="221" text-anchor="end" fill="#5A6B7D" font-family="Arial, sans-serif" font-size="14">Age</text>
  <text x="576" y="252" text-anchor="end" fill="#152637" font-family="Arial, sans-serif" font-size="26" font-weight="700">35 years</text>
  <rect x="88" y="326" width="544" height="122" rx="22" fill="#F7FAFC" stroke="#E1E8EE"/>
  <circle cx="128" cy="370" r="20" fill="#D9EDF5"/>
  <circle cx="128" cy="362" r="7" fill="#0F5C7A"/>
  <path d="M117 384c5-8 17-8 22 0" stroke="#0F5C7A" stroke-width="4" stroke-linecap="round"/>
  <text x="162" y="363" fill="#152637" font-family="Arial, sans-serif" font-size="22" font-weight="700">Sam Rivera</text>
  <text x="162" y="390" fill="#5A6B7D" font-family="Arial, sans-serif" font-size="16">Co-applicant</text>
  <text x="162" y="421" fill="#5A6B7D" font-family="Arial, sans-serif" font-size="14">Personal number</text>
  <text x="162" y="441" fill="#152637" font-family="Arial, sans-serif" font-size="18" font-weight="700">11038454321</text>
  <text x="576" y="363" text-anchor="end" fill="#5A6B7D" font-family="Arial, sans-serif" font-size="14">Age</text>
  <text x="576" y="394" text-anchor="end" fill="#152637" font-family="Arial, sans-serif" font-size="26" font-weight="700">-</text>
</svg>